<svg id="visual" viewBox="0 0 900 600" preserveAspectRatio="none" xmlns="http://www.w3.org/2000/svg" xmlns:xlink="http://www.w3.org/1999/xlink" version="1.1"><path d="M0 85L21.5 86C43 87 86 89 128.8 94C171.7 99 214.3 107 257.2 108C300 109 343 103 385.8 97C428.7 91 471.3 85 514.2 87C557 89 600 99 642.8 104C685.7 109 728.3 109 771.2 108C814 107 857 105 878.5 104L900 103L900 0L878.5 0C857 0 814 0 771.2 0C728.3 0 685.7 0 642.8 0C600 0 557 0 514.2 0C471.3 0 428.7 0 385.8 0C343 0 300 0 257.2 0C214.3 0 171.7 0 128.8 0C86 0 43 0 21.5 0L0 0Z" fill="#f5f5f4"></path><path d="M0 319L21.5 315C43 311 86 303 128.8 299C171.7 295 214.3 295 257.2 291C300 287 343 279 385.8 270C428.7 261 471.3 251 514.2 256C557 261 600 281 642.8 287C685.7 293 728.3 285 771.2 286C814 287 857 297 878.5 302L900 307L900 101L878.5 102C857 103 814 105 771.2 106C728.3 107 685.7 107 642.8 102C600 97 557 87 514.2 85C471.3 83 428.7 89 385.8 95C343 101 300 107 257.2 106C214.3 105 171.7 97 128.8 92C86 87 43 85 21.5 84L0 83Z" fill="#42C0D6"></path><path d="M0 469L21.5 468C43 467 86 465 128.8 469C171.7 473 214.3 483 257.2 485C300 487 343 481 385.8 475C428.7 469 471.3 463 514.2 462C557 461 600 465 642.8 466C685.7 467 728.3 465 771.2 469C814 473 857 483 878.5 488L900 493L900 305L878.5 300C857 295 814 285 771.2 284C728.3 283 685.7 291 642.8 285C600 279 557 259 514.2 254C471.3 249 428.7 259 385.8 268C343 277 300 285 257.2 289C214.3 293 171.7 293 128.8 297C86 301 43 309 21.5 313L0 317Z" fill="#42C0D6"></path><path d="M0 601L21.5 601C43 601 86 601 128.8 601C171.7 601 214.3 601 257.2 601C300 601 343 601 385.8 601C428.7 601 471.3 601 514.2 601C557 601 600 601 642.8 601C685.7 601 728.3 601 771.2 601C814 601 857 601 878.5 601L900 601L900 491L878.5 486C857 481 814 471 771.2 467C728.3 463 685.7 465 642.8 464C600 463 557 459 514.2 460C471.3 461 428.7 467 385.8 473C343 479 300 485 257.2 483C214.3 481 171.7 471 128.8 467C86 463 43 465 21.5 466L0 467Z" fill="#f5f5f4"></path></svg>