<svg id="visual" viewBox="0 0 900 600" preserveAspectRatio="none" xmlns="http://www.w3.org/2000/svg" xmlns:xlink="http://www.w3.org/1999/xlink" version="1.1"><path d="M0 103L25 105C50 107 100 111 150 113C200 115 250 115 300 110C350 105 400 95 450 89C500 83 550 81 600 85C650 89 700 99 750 99C800 99 850 89 875 84L900 79L900 0L875 0C850 0 800 0 750 0C700 0 650 0 600 0C550 0 500 0 450 0C400 0 350 0 300 0C250 0 200 0 150 0C100 0 50 0 25 0L0 0Z" fill="#f5f5f4"></path><path d="M0 313L25 305C50 297 100 281 150 276C200 271 250 277 300 282C350 287 400 291 450 296C500 301 550 307 600 308C650 309 700 305 750 298C800 291 850 281 875 276L900 271L900 77L875 82C850 87 800 97 750 97C700 97 650 87 600 83C550 79 500 81 450 87C400 93 350 103 300 108C250 113 200 113 150 111C100 109 50 105 25 103L0 101Z" fill="#42C0D6"></path><path d="M0 469L25 473C50 477 100 485 150 490C200 495 250 497 300 493C350 489 400 479 450 476C500 473 550 477 600 479C650 481 700 481 750 482C800 483 850 485 875 486L900 487L900 269L875 274C850 279 800 289 750 296C700 303 650 307 600 306C550 305 500 299 450 294C400 289 350 285 300 280C250 275 200 269 150 274C100 279 50 295 25 303L0 311Z" fill="#42C0D6"></path><path d="M0 601L25 601C50 601 100 601 150 601C200 601 250 601 300 601C350 601 400 601 450 601C500 601 550 601 600 601C650 601 700 601 750 601C800 601 850 601 875 601L900 601L900 485L875 484C850 483 800 481 750 480C700 479 650 479 600 477C550 475 500 471 450 474C400 477 350 487 300 491C250 495 200 493 150 488C100 483 50 475 25 471L0 467Z" fill="#f5f5f4"></path></svg>