<svg id="visual" viewBox="0 0 900 600" preserveAspectRatio="none" xmlns="http://www.w3.org/2000/svg" xmlns:xlink="http://www.w3.org/1999/xlink" version="1.1"><path d="M0 85L25 90C50 95 100 105 150 107C200 109 250 103 300 97C350 91 400 85 450 83C500 81 550 83 600 85C650 87 700 89 750 93C800 97 850 103 875 106L900 109L900 0L875 0C850 0 800 0 750 0C700 0 650 0 600 0C550 0 500 0 450 0C400 0 350 0 300 0C250 0 200 0 150 0C100 0 50 0 25 0L0 0Z" fill="#f5f5f4"></path><path d="M0 301L25 300C50 299 100 297 150 297C200 297 250 299 300 293C350 287 400 273 450 265C500 257 550 255 600 264C650 273 700 293 750 304C800 315 850 317 875 318L900 319L900 107L875 104C850 101 800 95 750 91C700 87 650 85 600 83C550 81 500 79 450 81C400 83 350 89 300 95C250 101 200 107 150 105C100 103 50 93 25 88L0 83Z" fill="#42C0D6"></path><path d="M0 481L25 485C50 489 100 497 150 499C200 501 250 497 300 496C350 495 400 497 450 498C500 499 550 499 600 497C650 495 700 491 750 489C800 487 850 487 875 487L900 487L900 317L875 316C850 315 800 313 750 302C700 291 650 271 600 262C550 253 500 255 450 263C400 271 350 285 300 291C250 297 200 295 150 295C100 295 50 297 25 298L0 299Z" fill="#42C0D6"></path><path d="M0 601L25 601C50 601 100 601 150 601C200 601 250 601 300 601C350 601 400 601 450 601C500 601 550 601 600 601C650 601 700 601 750 601C800 601 850 601 875 601L900 601L900 485L875 485C850 485 800 485 750 487C700 489 650 493 600 495C550 497 500 497 450 496C400 495 350 493 300 494C250 495 200 499 150 497C100 495 50 487 25 483L0 479Z" fill="#f5f5f4"></path></svg>