<svg id="visual" viewBox="0 0 900 600" preserveAspectRatio="none" xmlns="http://www.w3.org/2000/svg" xmlns:xlink="http://www.w3.org/1999/xlink" version="1.1"><rect x="0" y="0" width="900" height="600" fill="#F5F5F4"></rect><path d="M0 292L15 294.3C30 296.7 60 301.3 90 303.8C120 306.3 150 306.7 180 302.3C210 298 240 289 270 283C300 277 330 274 360 281C390 288 420 305 450 307.7C480 310.3 510 298.7 540 298.3C570 298 600 309 630 315C660 321 690 322 720 314.7C750 307.3 780 291.7 810 289C840 286.3 870 296.7 885 301.8L900 307L900 0L885 0C870 0 840 0 810 0C780 0 750 0 720 0C690 0 660 0 630 0C600 0 570 0 540 0C510 0 480 0 450 0C420 0 390 0 360 0C330 0 300 0 270 0C240 0 210 0 180 0C150 0 120 0 90 0C60 0 30 0 15 0L0 0Z" fill="#42C0D6" stroke-linecap="round" stroke-linejoin="miter"></path></svg>