<svg id="visual" viewBox="0 0 900 600" preserveAspectRatio="none" xmlns="http://www.w3.org/2000/svg" xmlns:xlink="http://www.w3.org/1999/xlink" version="1.1"><rect x="0" y="0" width="900" height="600" fill="#E687D1"></rect><path d="M0 438L21.5 443.3C43 448.7 86 459.3 128.8 449.8C171.7 440.3 214.3 410.7 257.2 412.3C300 414 343 447 385.8 456C428.7 465 471.3 450 514.2 434.7C557 419.3 600 403.7 642.8 397.7C685.7 391.7 728.3 395.3 771.2 411C814 426.7 857 454.3 878.5 468.2L900 482L900 601L878.5 601C857 601 814 601 771.2 601C728.3 601 685.7 601 642.8 601C600 601 557 601 514.2 601C471.3 601 428.7 601 385.8 601C343 601 300 601 257.2 601C214.3 601 171.7 601 128.8 601C86 601 43 601 21.5 601L0 601Z" fill="#F5F5F4" stroke-linecap="round" stroke-linejoin="miter"></path></svg>