<svg id="visual" viewBox="0 0 900 600" preserveAspectRatio="none" xmlns="http://www.w3.org/2000/svg" xmlns:xlink="http://www.w3.org/1999/xlink" version="1.1"><rect x="0" y="0" width="900" height="600" fill="#9AE687"></rect><path d="M0 442L18.8 441.7C37.7 441.3 75.3 440.7 112.8 449.2C150.3 457.7 187.7 475.3 225.2 488C262.7 500.7 300.3 508.3 337.8 506.5C375.3 504.7 412.7 493.3 450.2 491.7C487.7 490 525.3 498 562.8 496C600.3 494 637.7 482 675.2 474.2C712.7 466.3 750.3 462.7 787.8 458.2C825.3 453.7 862.7 448.3 881.3 445.7L900 443L900 601L881.3 601C862.7 601 825.3 601 787.8 601C750.3 601 712.7 601 675.2 601C637.7 601 600.3 601 562.8 601C525.3 601 487.7 601 450.2 601C412.7 601 375.3 601 337.8 601C300.3 601 262.7 601 225.2 601C187.7 601 150.3 601 112.8 601C75.3 601 37.7 601 18.8 601L0 601Z" fill="#F5F5F4" stroke-linecap="round" stroke-linejoin="miter"></path></svg>