<svg id="visual" viewBox="0 0 960 540" preserveAspectRatio="none" xmlns="http://www.w3.org/2000/svg" xmlns:xlink="http://www.w3.org/1999/xlink" version="1.1"><rect x="0" y="0" width="960" height="540" fill="#F04164"></rect><path d="M0 474L7.3 473.5C14.7 473 29.3 472 43.8 471.5C58.3 471 72.7 471 87.2 475.3C101.7 479.7 116.3 488.3 131 493C145.7 497.7 160.3 498.3 174.8 495.5C189.3 492.7 203.7 486.3 218.2 487.2C232.7 488 247.3 496 261.8 499.7C276.3 503.3 290.7 502.7 305.2 501C319.7 499.3 334.3 496.7 349 495.7C363.7 494.7 378.3 495.3 392.8 495.3C407.3 495.3 421.7 494.7 436.2 490.2C450.7 485.7 465.3 477.3 480 478C494.7 478.7 509.3 488.3 523.8 491.5C538.3 494.7 552.7 491.3 567.2 486.7C581.7 482 596.3 476 611 474.8C625.7 473.7 640.3 477.3 654.8 483C669.3 488.7 683.7 496.3 698.2 497.7C712.7 499 727.3 494 741.8 492.5C756.3 491 770.7 493 785.2 495.8C799.7 498.7 814.3 502.3 829 501.7C843.7 501 858.3 496 872.8 495.5C887.3 495 901.7 499 916.2 496C930.7 493 945.3 483 952.7 478L960 473L960 541L952.7 541C945.3 541 930.7 541 916.2 541C901.7 541 887.3 541 872.8 541C858.3 541 843.7 541 829 541C814.3 541 799.7 541 785.2 541C770.7 541 756.3 541 741.8 541C727.3 541 712.7 541 698.2 541C683.7 541 669.3 541 654.8 541C640.3 541 625.7 541 611 541C596.3 541 581.7 541 567.2 541C552.7 541 538.3 541 523.8 541C509.3 541 494.7 541 480 541C465.3 541 450.7 541 436.2 541C421.7 541 407.3 541 392.8 541C378.3 541 363.7 541 349 541C334.3 541 319.7 541 305.2 541C290.7 541 276.3 541 261.8 541C247.3 541 232.7 541 218.2 541C203.7 541 189.3 541 174.8 541C160.3 541 145.7 541 131 541C116.3 541 101.7 541 87.2 541C72.7 541 58.3 541 43.8 541C29.3 541 14.7 541 7.3 541L0 541Z" fill="#F5F5F4" stroke-linecap="round" stroke-linejoin="miter"></path></svg>