<svg id="visual" viewBox="0 0 960 540" preserveAspectRatio="none" xmlns="http://www.w3.org/2000/svg" xmlns:xlink="http://www.w3.org/1999/xlink" version="1.1"><rect x="0" y="0" width="960" height="540" fill="#F04164"></rect><path d="M0 72L6.2 73.7C12.3 75.3 24.7 78.7 37 80C49.3 81.3 61.7 80.7 74 80C86.3 79.3 98.7 78.7 111 79.5C123.3 80.3 135.7 82.7 148 83C160.3 83.3 172.7 81.7 185 81C197.3 80.3 209.7 80.7 221.8 79.8C234 79 246 77 258.2 76.7C270.3 76.3 282.7 77.7 295 77.2C307.3 76.7 319.7 74.3 332 73.3C344.3 72.3 356.7 72.7 369 73.7C381.3 74.7 393.7 76.3 406 78C418.3 79.7 430.7 81.3 443 80.5C455.3 79.7 467.7 76.3 480 76.2C492.3 76 504.7 79 517 81.2C529.3 83.3 541.7 84.7 554 84.3C566.3 84 578.7 82 591 80.5C603.3 79 615.7 78 628 76.8C640.3 75.7 652.7 74.3 665 74.2C677.3 74 689.7 75 701.8 75C714 75 726 74 738.2 73.5C750.3 73 762.7 73 775 73C787.3 73 799.7 73 812 73C824.3 73 836.7 73 849 75C861.3 77 873.7 81 886 83.5C898.3 86 910.7 87 923 87.5C935.3 88 947.7 88 953.8 88L960 88L960 0L953.8 0C947.7 0 935.3 0 923 0C910.7 0 898.3 0 886 0C873.7 0 861.3 0 849 0C836.7 0 824.3 0 812 0C799.7 0 787.3 0 775 0C762.7 0 750.3 0 738.2 0C726 0 714 0 701.8 0C689.7 0 677.3 0 665 0C652.7 0 640.3 0 628 0C615.7 0 603.3 0 591 0C578.7 0 566.3 0 554 0C541.7 0 529.3 0 517 0C504.7 0 492.3 0 480 0C467.7 0 455.3 0 443 0C430.7 0 418.3 0 406 0C393.7 0 381.3 0 369 0C356.7 0 344.3 0 332 0C319.7 0 307.3 0 295 0C282.7 0 270.3 0 258.2 0C246 0 234 0 221.8 0C209.7 0 197.3 0 185 0C172.7 0 160.3 0 148 0C135.7 0 123.3 0 111 0C98.7 0 86.3 0 74 0C61.7 0 49.3 0 37 0C24.7 0 12.3 0 6.2 0L0 0Z" fill="#F5F5F4" stroke-linecap="round" stroke-linejoin="miter"></path></svg>