<svg id="visual" viewBox="0 0 900 600" opacity="0.5" width="900" height="600" xmlns="http://www.w3.org/2000/svg" xmlns:xlink="http://www.w3.org/1999/xlink" version="1.1"><rect x="0" y="0" width="900" height="600" fill="#000000"></rect><g fill="#106136"><circle r="35" cx="222" cy="101"></circle><circle r="24" cx="458" cy="525"></circle><circle r="27" cx="155" cy="125"></circle><circle r="23" cx="676" cy="123"></circle><circle r="26" cx="57" cy="174"></circle><circle r="33" cx="210" cy="426"></circle><circle r="23" cx="577" cy="507"></circle><circle r="31" cx="376" cy="291"></circle><circle r="29" cx="219" cy="249"></circle><circle r="25" cx="65" cy="476"></circle><circle r="27" cx="416" cy="200"></circle><circle r="30" cx="368" cy="115"></circle><circle r="30" cx="280" cy="287"></circle><circle r="25" cx="432" cy="435"></circle><circle r="27" cx="720" cy="59"></circle><circle r="27" cx="821" cy="78"></circle><circle r="29" cx="365" cy="370"></circle><circle r="33" cx="864" cy="182"></circle><circle r="28" cx="653" cy="409"></circle><circle r="24" cx="715" cy="184"></circle><circle r="26" cx="471" cy="74"></circle><circle r="23" cx="553" cy="221"></circle><circle r="25" cx="326" cy="467"></circle><circle r="23" cx="66" cy="327"></circle><circle r="33" cx="139" cy="309"></circle><circle r="26" cx="457" cy="353"></circle><circle r="26" cx="622" cy="562"></circle><circle r="28" cx="822" cy="561"></circle><circle r="27" cx="173" cy="518"></circle><circle r="28" cx="549" cy="312"></circle><circle r="28" cx="668" cy="276"></circle><circle r="29" cx="284" cy="362"></circle><circle r="33" cx="800" cy="348"></circle><circle r="31" cx="861" cy="282"></circle><circle r="29" cx="761" cy="510"></circle><circle r="29" cx="589" cy="371"></circle><circle r="29" cx="320" cy="200"></circle><circle r="32" cx="787" cy="274"></circle><circle r="27" cx="849" cy="457"></circle><circle r="26" cx="565" cy="41"></circle><circle r="26" cx="105" cy="223"></circle><circle r="31" cx="681" cy="512"></circle><circle r="32" cx="639" cy="38"></circle><circle r="28" cx="261" cy="519"></circle><circle r="30" cx="530" cy="560"></circle><circle r="26" cx="379" cy="564"></circle><circle r="27" cx="144" cy="404"></circle><circle r="27" cx="499" cy="172"></circle><circle r="31" cx="521" cy="428"></circle><circle r="28" cx="108" cy="550"></circle><circle r="30" cx="39" cy="71"></circle><circle r="32" cx="760" cy="127"></circle><circle r="27" cx="214" cy="349"></circle><circle r="30" cx="104" cy="40"></circle></g></svg>