<svg id="visual" viewBox="0 0 900 600" width="900" height="600" xmlns="http://www.w3.org/2000/svg" xmlns:xlink="http://www.w3.org/1999/xlink" version="1.1"><path d="M0 342L16.7 332.3C33.3 322.7 66.7 303.3 100 301.2C133.3 299 166.7 314 200 313.7C233.3 313.3 266.7 297.7 300 299.8C333.3 302 366.7 322 400 331C433.3 340 466.7 338 500 328.5C533.3 319 566.7 302 600 295.2C633.3 288.3 666.7 291.7 700 286.8C733.3 282 766.7 269 800 264.2C833.3 259.3 866.7 262.7 883.3 264.3L900 266L900 0L883.3 0C866.7 0 833.3 0 800 0C766.7 0 733.3 0 700 0C666.7 0 633.3 0 600 0C566.7 0 533.3 0 500 0C466.7 0 433.3 0 400 0C366.7 0 333.3 0 300 0C266.7 0 233.3 0 200 0C166.7 0 133.3 0 100 0C66.7 0 33.3 0 16.7 0L0 0Z" fill="#F58042" stroke-linecap="round" stroke-linejoin="miter"></path></svg>