<svg id="visual" viewBox="0 0 900 600" preserveAspectRatio="none" xmlns="http://www.w3.org/2000/svg" xmlns:xlink="http://www.w3.org/1999/xlink" version="1.1"><g stroke-width="1" stroke-linejoin="bevel"><path d="M445 280L406 282L428 312.9Z" fill="#00265e" stroke="#00265e"></path><path d="M390 269.1L393 274L406 282Z" fill="#00265e" stroke="#00265e"></path><path d="M377 369.9L417 372.7L428 312.9Z" fill="#192a7d" stroke="#192a7d"></path><path d="M445 280L390 269.1L406 282Z" fill="#001d3d" stroke="#001d3d"></path><path d="M445 280L442 205.4L390 269.1Z" fill="#00265e" stroke="#00265e"></path><path d="M442 205.4L371 235.1L390 269.1Z" fill="#2f298a" stroke="#2f298a"></path><path d="M417 372.7L467 358.9L428 312.9Z" fill="#5e1ea0" stroke="#5e1ea0"></path><path d="M428 312.9L467 358.9L445 280Z" fill="#00265e" stroke="#00265e"></path><path d="M445 280L516 283.1L469 231.1Z" fill="#462696" stroke="#462696"></path><path d="M341 289L406 282L393 274Z" fill="#2f298a" stroke="#2f298a"></path><path d="M377 369.9L428 312.9L406 282Z" fill="#462696" stroke="#462696"></path><path d="M341 289L393 274L390 269.1Z" fill="#00172c" stroke="#00172c"></path><path d="M371 235.1L341 289L390 269.1Z" fill="#00172c" stroke="#00172c"></path><path d="M469 231.1L442 205.4L445 280Z" fill="#00224e" stroke="#00224e"></path><path d="M514 337L516 283.1L445 280Z" fill="#00265e" stroke="#00265e"></path><path d="M377 369.9L416 382.7L417 372.7Z" fill="#00265e" stroke="#00265e"></path><path d="M417 372.7L462 404.6L467 358.9Z" fill="#2f298a" stroke="#2f298a"></path><path d="M341 289L377 369.9L406 282Z" fill="#00224e" stroke="#00224e"></path><path d="M531 286L521 281.1L516 283.1Z" fill="#5e1ea0" stroke="#5e1ea0"></path><path d="M516 283.1L521 281.1L469 231.1Z" fill="#00296e" stroke="#00296e"></path><path d="M473 189.3L433 195.3L442 205.4Z" fill="#00296e" stroke="#00296e"></path><path d="M442 205.4L384 197.3L371 235.1Z" fill="#192a7d" stroke="#192a7d"></path><path d="M473 189.3L442 205.4L469 231.1Z" fill="#5e1ea0" stroke="#5e1ea0"></path><path d="M477 381.7L514 337L467 358.9Z" fill="#00172c" stroke="#00172c"></path><path d="M467 358.9L514 337L445 280Z" fill="#462696" stroke="#462696"></path><path d="M433 195.3L384 197.3L442 205.4Z" fill="#462696" stroke="#462696"></path><path d="M371 235.1L288 242.1L341 289Z" fill="#7608a8" stroke="#7608a8"></path><path d="M462 404.6L477 381.7L467 358.9Z" fill="#462696" stroke="#462696"></path><path d="M514 337L531 286L516 283.1Z" fill="#00172c" stroke="#00172c"></path><path d="M502 176.3L473 189.3L520 190.4Z" fill="#00101c" stroke="#00101c"></path><path d="M341 289L354 368.9L377 369.9Z" fill="#7608a8" stroke="#7608a8"></path><path d="M377 369.9L384 404.6L416 382.7Z" fill="#00101c" stroke="#00101c"></path><path d="M473 189.3L469 231.1L520 190.4Z" fill="#00296e" stroke="#00296e"></path><path d="M433 195.3L385 184.4L384 197.3Z" fill="#00265e" stroke="#00265e"></path><path d="M397 159.6L385 184.4L433 195.3Z" fill="#7608a8" stroke="#7608a8"></path><path d="M384 197.3L347 205.3L371 235.1Z" fill="#5e1ea0" stroke="#5e1ea0"></path><path d="M385 184.4L347 205.3L384 197.3Z" fill="#00101c" stroke="#00101c"></path><path d="M415 445.6L462 404.6L416 382.7Z" fill="#7608a8" stroke="#7608a8"></path><path d="M416 382.7L462 404.6L417 372.7Z" fill="#00296e" stroke="#00296e"></path><path d="M549 354.7L554 342.9L514 337Z" fill="#001d3d" stroke="#001d3d"></path><path d="M354 368.9L384 404.6L377 369.9Z" fill="#001d3d" stroke="#001d3d"></path><path d="M298 308L328 363.9L341 289Z" fill="#462696" stroke="#462696"></path><path d="M341 289L328 363.9L354 368.9Z" fill="#2f298a" stroke="#2f298a"></path><path d="M354 368.9L335 384.7L384 404.6Z" fill="#00172c" stroke="#00172c"></path><path d="M288 242.1L298 308L341 289Z" fill="#00224e" stroke="#00224e"></path><path d="M296 394.7L335 384.7L328 363.9Z" fill="#00101c" stroke="#00101c"></path><path d="M328 363.9L335 384.7L354 368.9Z" fill="#2f298a" stroke="#2f298a"></path><path d="M473 189.3L397 159.6L433 195.3Z" fill="#00265e" stroke="#00265e"></path><path d="M385 184.4L336 173.4L347 205.3Z" fill="#00265e" stroke="#00265e"></path><path d="M520 190.4L469 231.1L521 281.1Z" fill="#7608a8" stroke="#7608a8"></path><path d="M473 189.3L424 95.7L397 159.6Z" fill="#00265e" stroke="#00265e"></path><path d="M561 243.3L520 190.4L521 281.1Z" fill="#00265e" stroke="#00265e"></path><path d="M549 354.7L514 337L477 381.7Z" fill="#7608a8" stroke="#7608a8"></path><path d="M514 337L563 315.9L531 286Z" fill="#001d3d" stroke="#001d3d"></path><path d="M531 286L561 243.3L521 281.1Z" fill="#00265e" stroke="#00265e"></path><path d="M552 397.6L549 354.7L477 381.7Z" fill="#192a7d" stroke="#192a7d"></path><path d="M554 342.9L563 315.9L514 337Z" fill="#001d3d" stroke="#001d3d"></path><path d="M573 258.1L561 243.3L531 286Z" fill="#00296e" stroke="#00296e"></path><path d="M378 137.6L382 154.4L397 159.6Z" fill="#2f298a" stroke="#2f298a"></path><path d="M397 159.6L382 154.4L385 184.4Z" fill="#192a7d" stroke="#192a7d"></path><path d="M287 222.1L288 242.1L347 205.3Z" fill="#00296e" stroke="#00296e"></path><path d="M347 205.3L288 242.1L371 235.1Z" fill="#462696" stroke="#462696"></path><path d="M345 155.6L336 173.4L385 184.4Z" fill="#5e1ea0" stroke="#5e1ea0"></path><path d="M549 354.7L569 333L554 342.9Z" fill="#7608a8" stroke="#7608a8"></path><path d="M554 342.9L569 333L563 315.9Z" fill="#00265e" stroke="#00265e"></path><path d="M563 315.9L573 258.1L531 286Z" fill="#00296e" stroke="#00296e"></path><path d="M616 310L573 258.1L563 315.9Z" fill="#001d3d" stroke="#001d3d"></path><path d="M598 197.4L520 161.4L520 190.4Z" fill="#192a7d" stroke="#192a7d"></path><path d="M367 435.6L415 445.6L384 404.6Z" fill="#462696" stroke="#462696"></path><path d="M384 404.6L415 445.6L416 382.7Z" fill="#00224e" stroke="#00224e"></path><path d="M552 422.6L552 397.6L477 381.7Z" fill="#00224e" stroke="#00224e"></path><path d="M292 180.3L287 222.1L347 205.3Z" fill="#462696" stroke="#462696"></path><path d="M352 437.4L367 435.6L384 404.6Z" fill="#5e1ea0" stroke="#5e1ea0"></path><path d="M382 154.4L345 155.6L385 184.4Z" fill="#00224e" stroke="#00224e"></path><path d="M336 173.4L292 180.3L347 205.3Z" fill="#001d3d" stroke="#001d3d"></path><path d="M520 190.4L520 161.4L502 176.3Z" fill="#00172c" stroke="#00172c"></path><path d="M436 90.6L424 95.7L473 189.3Z" fill="#462696" stroke="#462696"></path><path d="M598 197.4L520 190.4L561 243.3Z" fill="#00224e" stroke="#00224e"></path><path d="M242 301L287 370.9L298 308Z" fill="#7608a8" stroke="#7608a8"></path><path d="M298 308L287 370.9L328 363.9Z" fill="#192a7d" stroke="#192a7d"></path><path d="M335 384.7L352 437.4L384 404.6Z" fill="#5e1ea0" stroke="#5e1ea0"></path><path d="M242 301L298 308L288 242.1Z" fill="#00101c" stroke="#00101c"></path><path d="M424 95.7L378 137.6L397 159.6Z" fill="#192a7d" stroke="#192a7d"></path><path d="M382 154.4L378 137.6L345 155.6Z" fill="#00172c" stroke="#00172c"></path><path d="M302 406.7L352 437.4L335 384.7Z" fill="#462696" stroke="#462696"></path><path d="M327 490.4L437 471.4L415 445.6Z" fill="#001d3d" stroke="#001d3d"></path><path d="M552 422.6L477 381.7L462 404.6Z" fill="#2f298a" stroke="#2f298a"></path><path d="M549 354.7L613 361.7L569 333Z" fill="#00296e" stroke="#00296e"></path><path d="M287 370.9L296 394.7L328 363.9Z" fill="#00224e" stroke="#00224e"></path><path d="M296 394.7L302 406.7L335 384.7Z" fill="#001d3d" stroke="#001d3d"></path><path d="M288 180.3L292 180.3L303 126.6Z" fill="#001d3d" stroke="#001d3d"></path><path d="M303 126.6L292 180.3L336 173.4Z" fill="#00224e" stroke="#00224e"></path><path d="M303 126.6L336 173.4L345 155.6Z" fill="#00296e" stroke="#00296e"></path><path d="M292 180.3L288 180.3L287 222.1Z" fill="#7608a8" stroke="#7608a8"></path><path d="M440 477.3L437 471.4L327 490.4Z" fill="#00224e" stroke="#00224e"></path><path d="M415 445.6L460 470.4L462 404.6Z" fill="#5e1ea0" stroke="#5e1ea0"></path><path d="M547 449.4L552 422.6L462 404.6Z" fill="#00296e" stroke="#00296e"></path><path d="M617 350.9L616 310L569 333Z" fill="#00296e" stroke="#00296e"></path><path d="M437 471.4L460 470.4L415 445.6Z" fill="#00101c" stroke="#00101c"></path><path d="M250 207.4L288 242.1L287 222.1Z" fill="#00224e" stroke="#00224e"></path><path d="M223 251.3L242 301L288 242.1Z" fill="#00265e" stroke="#00265e"></path><path d="M277 457.6L290 445.4L215 391.7Z" fill="#192a7d" stroke="#192a7d"></path><path d="M296 394.7L290 445.4L302 406.7Z" fill="#5e1ea0" stroke="#5e1ea0"></path><path d="M327 490.4L415 445.6L367 435.6Z" fill="#5e1ea0" stroke="#5e1ea0"></path><path d="M437 471.4L440 477.3L460 470.4Z" fill="#001d3d" stroke="#001d3d"></path><path d="M613 361.7L549 354.7L552 397.6Z" fill="#462696" stroke="#462696"></path><path d="M569 333L616 310L563 315.9Z" fill="#00101c" stroke="#00101c"></path><path d="M573 258.1L598 197.4L561 243.3Z" fill="#462696" stroke="#462696"></path><path d="M288 180.3L250 207.4L287 222.1Z" fill="#192a7d" stroke="#192a7d"></path><path d="M436 90.6L473 189.3L481 92.6Z" fill="#192a7d" stroke="#192a7d"></path><path d="M334 84.7L303 126.6L345 155.6Z" fill="#00101c" stroke="#00101c"></path><path d="M440 477.3L454 484.4L460 470.4Z" fill="#7608a8" stroke="#7608a8"></path><path d="M460 470.4L547 449.4L462 404.6Z" fill="#00224e" stroke="#00224e"></path><path d="M488 521.1L454 484.4L477 547.3Z" fill="#00101c" stroke="#00101c"></path><path d="M628 225.3L598 197.4L573 258.1Z" fill="#00265e" stroke="#00265e"></path><path d="M481 92.6L473 189.3L502 176.3Z" fill="#001d3d" stroke="#001d3d"></path><path d="M598 197.4L539 128.6L520 161.4Z" fill="#462696" stroke="#462696"></path><path d="M487 497.3L547 449.4L460 470.4Z" fill="#192a7d" stroke="#192a7d"></path><path d="M613 395.7L613 361.7L552 397.6Z" fill="#00296e" stroke="#00296e"></path><path d="M613 395.7L552 397.6L552 422.6Z" fill="#001d3d" stroke="#001d3d"></path><path d="M613 361.7L617 350.9L569 333Z" fill="#00224e" stroke="#00224e"></path><path d="M481 92.6L502 176.3L505 98.7Z" fill="#7608a8" stroke="#7608a8"></path><path d="M334 84.7L345 155.6L378 137.6Z" fill="#001d3d" stroke="#001d3d"></path><path d="M214 148.4L197 182.4L250 207.4Z" fill="#00224e" stroke="#00224e"></path><path d="M334 84.7L378 137.6L383 53.7Z" fill="#462696" stroke="#462696"></path><path d="M302 406.7L296 453.6L352 437.4Z" fill="#462696" stroke="#462696"></path><path d="M352 437.4L327 490.4L367 435.6Z" fill="#7608a8" stroke="#7608a8"></path><path d="M215 391.7L296 394.7L287 370.9Z" fill="#00172c" stroke="#00172c"></path><path d="M505 98.7L502 176.3L520 161.4Z" fill="#462696" stroke="#462696"></path><path d="M250 207.4L223 251.3L288 242.1Z" fill="#001d3d" stroke="#001d3d"></path><path d="M242 301L213 353.7L287 370.9Z" fill="#00265e" stroke="#00265e"></path><path d="M539 128.6L505 98.7L520 161.4Z" fill="#2f298a" stroke="#2f298a"></path><path d="M223 251.3L218 285.1L242 301Z" fill="#00296e" stroke="#00296e"></path><path d="M290 445.4L296 453.6L302 406.7Z" fill="#2f298a" stroke="#2f298a"></path><path d="M616 310L628 225.3L573 258.1Z" fill="#00101c" stroke="#00101c"></path><path d="M598 197.4L614 168.4L539 128.6Z" fill="#00296e" stroke="#00296e"></path><path d="M660 237.1L628 225.3L616 310Z" fill="#5e1ea0" stroke="#5e1ea0"></path><path d="M613 361.7L667 366.9L617 350.9Z" fill="#7608a8" stroke="#7608a8"></path><path d="M634 438.6L613 395.7L628 452.4Z" fill="#001d3d" stroke="#001d3d"></path><path d="M488 521.1L487 497.3L454 484.4Z" fill="#462696" stroke="#462696"></path><path d="M454 484.4L487 497.3L460 470.4Z" fill="#00224e" stroke="#00224e"></path><path d="M218 285.1L213 353.7L242 301Z" fill="#00296e" stroke="#00296e"></path><path d="M290 445.4L277 457.6L296 453.6Z" fill="#2f298a" stroke="#2f298a"></path><path d="M296 453.6L327 490.4L352 437.4Z" fill="#00101c" stroke="#00101c"></path><path d="M215 391.7L290 445.4L296 394.7Z" fill="#00265e" stroke="#00265e"></path><path d="M296 453.6L279 476.3L327 490.4Z" fill="#00296e" stroke="#00296e"></path><path d="M628 225.3L614 168.4L598 197.4Z" fill="#001d3d" stroke="#001d3d"></path><path d="M561 79.7L509 64.9L505 98.7Z" fill="#00101c" stroke="#00101c"></path><path d="M420 61.9L424 95.7L436 90.6Z" fill="#2f298a" stroke="#2f298a"></path><path d="M383 53.7L378 137.6L424 95.7Z" fill="#00296e" stroke="#00296e"></path><path d="M509 64.9L420 61.9L481 92.6Z" fill="#00172c" stroke="#00172c"></path><path d="M481 92.6L420 61.9L436 90.6Z" fill="#00224e" stroke="#00224e"></path><path d="M667 366.9L657 312L617 350.9Z" fill="#5e1ea0" stroke="#5e1ea0"></path><path d="M617 350.9L657 312L616 310Z" fill="#00172c" stroke="#00172c"></path><path d="M628 225.3L688 202.4L614 168.4Z" fill="#00101c" stroke="#00101c"></path><path d="M223 251.3L194 276L218 285.1Z" fill="#7608a8" stroke="#7608a8"></path><path d="M218 285.1L194 350.9L213 353.7Z" fill="#2f298a" stroke="#2f298a"></path><path d="M171 264.1L194 276L223 251.3Z" fill="#00265e" stroke="#00265e"></path><path d="M197 182.4L223 251.3L250 207.4Z" fill="#192a7d" stroke="#192a7d"></path><path d="M195 365.9L215 391.7L213 353.7Z" fill="#192a7d" stroke="#192a7d"></path><path d="M213 353.7L215 391.7L287 370.9Z" fill="#192a7d" stroke="#192a7d"></path><path d="M244 487.3L279 476.3L277 457.6Z" fill="#192a7d" stroke="#192a7d"></path><path d="M277 457.6L279 476.3L296 453.6Z" fill="#001d3d" stroke="#001d3d"></path><path d="M477 547.3L454 484.4L440 477.3Z" fill="#462696" stroke="#462696"></path><path d="M531 517.3L556 501.3L547 449.4Z" fill="#2f298a" stroke="#2f298a"></path><path d="M628 452.4L613 395.7L552 422.6Z" fill="#192a7d" stroke="#192a7d"></path><path d="M194 276L194 350.9L218 285.1Z" fill="#7608a8" stroke="#7608a8"></path><path d="M657 312L660 237.1L616 310Z" fill="#462696" stroke="#462696"></path><path d="M334 84.7L295 89.7L303 126.6Z" fill="#00224e" stroke="#00224e"></path><path d="M214 148.4L250 207.4L288 180.3Z" fill="#00296e" stroke="#00296e"></path><path d="M284 75.7L295 89.7L334 84.7Z" fill="#001d3d" stroke="#001d3d"></path><path d="M561 79.7L505 98.7L539 128.6Z" fill="#001d3d" stroke="#001d3d"></path><path d="M505 98.7L509 64.9L481 92.6Z" fill="#001d3d" stroke="#001d3d"></path><path d="M352 23.9L383 53.7L371 18.9Z" fill="#001d3d" stroke="#001d3d"></path><path d="M420 61.9L383 53.7L424 95.7Z" fill="#2f298a" stroke="#2f298a"></path><path d="M673 226.3L661 235.1L660 237.1Z" fill="#192a7d" stroke="#192a7d"></path><path d="M660 237.1L661 235.1L628 225.3Z" fill="#001d3d" stroke="#001d3d"></path><path d="M194 350.9L195 365.9L213 353.7Z" fill="#192a7d" stroke="#192a7d"></path><path d="M215 391.7L223 457.6L277 457.6Z" fill="#00101c" stroke="#00101c"></path><path d="M531 517.3L547 449.4L487 497.3Z" fill="#00296e" stroke="#00296e"></path><path d="M488 521.1L531 517.3L487 497.3Z" fill="#00172c" stroke="#00172c"></path><path d="M622 121.6L539 128.6L614 168.4Z" fill="#5e1ea0" stroke="#5e1ea0"></path><path d="M622 121.6L561 79.7L539 128.6Z" fill="#7608a8" stroke="#7608a8"></path><path d="M684 385.7L667 366.9L613 395.7Z" fill="#5e1ea0" stroke="#5e1ea0"></path><path d="M613 395.7L667 366.9L613 361.7Z" fill="#001d3d" stroke="#001d3d"></path><path d="M692 288.1L673 226.3L660 237.1Z" fill="#00265e" stroke="#00265e"></path><path d="M214 148.4L288 180.3L224 115.6Z" fill="#00101c" stroke="#00101c"></path><path d="M278 528.1L328 525.3L327 490.4Z" fill="#001d3d" stroke="#001d3d"></path><path d="M327 490.4L328 525.3L440 477.3Z" fill="#7608a8" stroke="#7608a8"></path><path d="M628 452.4L552 422.6L547 449.4Z" fill="#00101c" stroke="#00101c"></path><path d="M692 288.1L660 237.1L657 312Z" fill="#00296e" stroke="#00296e"></path><path d="M661 235.1L673 226.3L628 225.3Z" fill="#7608a8" stroke="#7608a8"></path><path d="M224 115.6L288 180.3L303 126.6Z" fill="#2f298a" stroke="#2f298a"></path><path d="M163 239.3L171 264.1L223 251.3Z" fill="#00224e" stroke="#00224e"></path><path d="M194 276L140 284.1L194 350.9Z" fill="#5e1ea0" stroke="#5e1ea0"></path><path d="M194 350.9L154 398.6L195 365.9Z" fill="#00224e" stroke="#00224e"></path><path d="M291 40.9L284 75.7L334 84.7Z" fill="#00224e" stroke="#00224e"></path><path d="M295 89.7L224 115.6L303 126.6Z" fill="#00224e" stroke="#00224e"></path><path d="M634 438.6L684 385.7L613 395.7Z" fill="#00224e" stroke="#00224e"></path><path d="M609 488.4L628 452.4L547 449.4Z" fill="#00224e" stroke="#00224e"></path><path d="M632 114.6L649 123.6L641 114.7Z" fill="#00265e" stroke="#00265e"></path><path d="M437 592.1L477 547.3L440 477.3Z" fill="#00265e" stroke="#00265e"></path><path d="M488 521.1L521 575.1L531 517.3Z" fill="#462696" stroke="#462696"></path><path d="M154 398.6L223 457.6L215 391.7Z" fill="#00296e" stroke="#00296e"></path><path d="M279 476.3L278 528.1L327 490.4Z" fill="#001d3d" stroke="#001d3d"></path><path d="M717 328.9L692 288.1L657 312Z" fill="#00172c" stroke="#00172c"></path><path d="M284 75.7L224 115.6L295 89.7Z" fill="#00265e" stroke="#00265e"></path><path d="M171 145.6L169 176.3L197 182.4Z" fill="#2f298a" stroke="#2f298a"></path><path d="M223 457.6L244 487.3L277 457.6Z" fill="#001d3d" stroke="#001d3d"></path><path d="M197 182.4L163 239.3L223 251.3Z" fill="#00224e" stroke="#00224e"></path><path d="M171 264.1L140 284.1L194 276Z" fill="#7608a8" stroke="#7608a8"></path><path d="M169 176.3L163 239.3L197 182.4Z" fill="#192a7d" stroke="#192a7d"></path><path d="M614 528.1L609 488.4L612 530.3Z" fill="#00296e" stroke="#00296e"></path><path d="M556 501.3L609 488.4L547 449.4Z" fill="#192a7d" stroke="#192a7d"></path><path d="M609 488.4L556 501.3L612 530.3Z" fill="#00224e" stroke="#00224e"></path><path d="M632 114.6L622 121.6L649 123.6Z" fill="#00224e" stroke="#00224e"></path><path d="M622 121.6L598 71.7L561 79.7Z" fill="#5e1ea0" stroke="#5e1ea0"></path><path d="M437 592.1L481 559.1L477 547.3Z" fill="#00296e" stroke="#00296e"></path><path d="M477 547.3L481 559.1L488 521.1Z" fill="#00265e" stroke="#00265e"></path><path d="M685 464.6L684 385.7L634 438.6Z" fill="#001d3d" stroke="#001d3d"></path><path d="M667 366.9L717 328.9L657 312Z" fill="#462696" stroke="#462696"></path><path d="M681 467.4L634 438.6L628 452.4Z" fill="#00224e" stroke="#00224e"></path><path d="M705 205.3L688 202.4L673 226.3Z" fill="#001d3d" stroke="#001d3d"></path><path d="M673 226.3L688 202.4L628 225.3Z" fill="#5e1ea0" stroke="#5e1ea0"></path><path d="M371 18.9L383 53.7L423 11.9Z" fill="#462696" stroke="#462696"></path><path d="M383 53.7L352 23.9L334 84.7Z" fill="#5e1ea0" stroke="#5e1ea0"></path><path d="M284 75.7L204 101.6L224 115.6Z" fill="#001d3d" stroke="#001d3d"></path><path d="M278 528.1L344 556.1L328 525.3Z" fill="#00224e" stroke="#00224e"></path><path d="M328 525.3L344 556.1L440 477.3Z" fill="#192a7d" stroke="#192a7d"></path><path d="M423 11.9L383 53.7L420 61.9Z" fill="#2f298a" stroke="#2f298a"></path><path d="M423 11.9L420 61.9L461 0Z" fill="#2f298a" stroke="#2f298a"></path><path d="M632 114.6L598 71.7L622 121.6Z" fill="#7608a8" stroke="#7608a8"></path><path d="M649 123.6L622 121.6L614 168.4Z" fill="#2f298a" stroke="#2f298a"></path><path d="M641 64.9L598 71.7L632 114.6Z" fill="#2f298a" stroke="#2f298a"></path><path d="M527 12.9L474 0L509 64.9Z" fill="#7608a8" stroke="#7608a8"></path><path d="M692 185.4L649 123.6L614 168.4Z" fill="#2f298a" stroke="#2f298a"></path><path d="M414 0L423 11.9L461 0Z" fill="#00101c" stroke="#00101c"></path><path d="M244 487.3L278 528.1L279 476.3Z" fill="#00296e" stroke="#00296e"></path><path d="M171 145.6L197 182.4L214 148.4Z" fill="#7608a8" stroke="#7608a8"></path><path d="M352 23.9L291 40.9L334 84.7Z" fill="#00296e" stroke="#00296e"></path><path d="M224 115.6L204 101.6L214 148.4Z" fill="#00172c" stroke="#00172c"></path><path d="M103 278L140 284.1L103 263.1Z" fill="#001d3d" stroke="#001d3d"></path><path d="M163 239.3L140 284.1L171 264.1Z" fill="#00172c" stroke="#00172c"></path><path d="M195 365.9L154 398.6L215 391.7Z" fill="#7608a8" stroke="#7608a8"></path><path d="M705 205.3L692 185.4L688 202.4Z" fill="#00296e" stroke="#00296e"></path><path d="M688 202.4L692 185.4L614 168.4Z" fill="#2f298a" stroke="#2f298a"></path><path d="M223 457.6L229 502.4L244 487.3Z" fill="#2f298a" stroke="#2f298a"></path><path d="M244 487.3L231 509.3L278 528.1Z" fill="#00296e" stroke="#00296e"></path><path d="M157 508.4L229 502.4L223 457.6Z" fill="#00265e" stroke="#00265e"></path><path d="M461 0L420 61.9L509 64.9Z" fill="#00172c" stroke="#00172c"></path><path d="M423 11.9L414 0L371 18.9Z" fill="#462696" stroke="#462696"></path><path d="M371 18.9L354 0L352 23.9Z" fill="#00172c" stroke="#00172c"></path><path d="M352 23.9L334 0L291 40.9Z" fill="#00172c" stroke="#00172c"></path><path d="M191 79.7L204 101.6L284 75.7Z" fill="#192a7d" stroke="#192a7d"></path><path d="M692 288.1L705 205.3L673 226.3Z" fill="#2f298a" stroke="#2f298a"></path><path d="M753 282.1L705 205.3L692 288.1Z" fill="#5e1ea0" stroke="#5e1ea0"></path><path d="M118 357.9L154 398.6L194 350.9Z" fill="#462696" stroke="#462696"></path><path d="M166 527.3L231 509.3L229 502.4Z" fill="#192a7d" stroke="#192a7d"></path><path d="M229 502.4L231 509.3L244 487.3Z" fill="#2f298a" stroke="#2f298a"></path><path d="M331 600L428 600L344 556.1Z" fill="#00224e" stroke="#00224e"></path><path d="M474 0L461 0L509 64.9Z" fill="#7608a8" stroke="#7608a8"></path><path d="M718 378.7L717 328.9L667 366.9Z" fill="#00296e" stroke="#00296e"></path><path d="M204 101.6L171 145.6L214 148.4Z" fill="#00224e" stroke="#00224e"></path><path d="M169 176.3L128 194.4L163 239.3Z" fill="#00172c" stroke="#00172c"></path><path d="M527 12.9L509 64.9L561 79.7Z" fill="#5e1ea0" stroke="#5e1ea0"></path><path d="M570 0L527 12.9L561 79.7Z" fill="#2f298a" stroke="#2f298a"></path><path d="M496 600L521 575.1L481 559.1Z" fill="#462696" stroke="#462696"></path><path d="M481 559.1L521 575.1L488 521.1Z" fill="#192a7d" stroke="#192a7d"></path><path d="M414 0L354 0L371 18.9Z" fill="#5e1ea0" stroke="#5e1ea0"></path><path d="M344 556.1L437 592.1L440 477.3Z" fill="#5e1ea0" stroke="#5e1ea0"></path><path d="M612 530.3L556 501.3L531 517.3Z" fill="#462696" stroke="#462696"></path><path d="M609 488.4L652 493.3L628 452.4Z" fill="#001d3d" stroke="#001d3d"></path><path d="M684 385.7L718 378.7L667 366.9Z" fill="#00296e" stroke="#00296e"></path><path d="M569 600L612 530.3L531 517.3Z" fill="#00224e" stroke="#00224e"></path><path d="M659 531.1L652 493.3L614 528.1Z" fill="#001d3d" stroke="#001d3d"></path><path d="M614 528.1L652 493.3L609 488.4Z" fill="#462696" stroke="#462696"></path><path d="M747 412.6L718 378.7L684 385.7Z" fill="#00224e" stroke="#00224e"></path><path d="M354 0L334 0L352 23.9Z" fill="#462696" stroke="#462696"></path><path d="M244 16.9L191 79.7L284 75.7Z" fill="#5e1ea0" stroke="#5e1ea0"></path><path d="M344 556.1L428 600L437 592.1Z" fill="#2f298a" stroke="#2f298a"></path><path d="M437 592.1L485 600L481 559.1Z" fill="#00172c" stroke="#00172c"></path><path d="M331 600L344 556.1L326 600Z" fill="#5e1ea0" stroke="#5e1ea0"></path><path d="M652 493.3L681 467.4L628 452.4Z" fill="#7608a8" stroke="#7608a8"></path><path d="M685 464.6L681 467.4L700 504.3Z" fill="#00172c" stroke="#00172c"></path><path d="M733 359.9L736 311L717 328.9Z" fill="#462696" stroke="#462696"></path><path d="M717 328.9L736 311L692 288.1Z" fill="#00172c" stroke="#00172c"></path><path d="M681 467.4L685 464.6L634 438.6Z" fill="#00296e" stroke="#00296e"></path><path d="M700 504.3L681 467.4L652 493.3Z" fill="#00172c" stroke="#00172c"></path><path d="M641 114.7L641 64.9L632 114.6Z" fill="#00172c" stroke="#00172c"></path><path d="M598 71.7L570 0L561 79.7Z" fill="#00296e" stroke="#00296e"></path><path d="M684 61.7L641 64.9L641 114.7Z" fill="#001d3d" stroke="#001d3d"></path><path d="M684 61.7L641 114.7L649 123.6Z" fill="#00101c" stroke="#00101c"></path><path d="M713 113.6L649 123.6L692 185.4Z" fill="#00224e" stroke="#00224e"></path><path d="M99 197.4L128 194.4L98 104.7Z" fill="#00101c" stroke="#00101c"></path><path d="M171 145.6L128 194.4L169 176.3Z" fill="#00101c" stroke="#00101c"></path><path d="M140 284.1L118 357.9L194 350.9Z" fill="#00224e" stroke="#00224e"></path><path d="M428 600L485 600L437 592.1Z" fill="#00296e" stroke="#00296e"></path><path d="M654 600L659 531.1L612 530.3Z" fill="#00296e" stroke="#00296e"></path><path d="M718 378.7L733 359.9L717 328.9Z" fill="#001d3d" stroke="#001d3d"></path><path d="M772 390.7L733 359.9L718 378.7Z" fill="#001d3d" stroke="#001d3d"></path><path d="M103 278L118 357.9L140 284.1Z" fill="#7608a8" stroke="#7608a8"></path><path d="M154 398.6L150 457.6L223 457.6Z" fill="#192a7d" stroke="#192a7d"></path><path d="M244 16.9L284 75.7L291 40.9Z" fill="#00296e" stroke="#00296e"></path><path d="M204 101.6L142 100.7L171 145.6Z" fill="#462696" stroke="#462696"></path><path d="M485 600L496 600L481 559.1Z" fill="#00172c" stroke="#00172c"></path><path d="M334 0L288 0L291 40.9Z" fill="#00296e" stroke="#00296e"></path><path d="M111 421.7L150 457.6L154 398.6Z" fill="#7608a8" stroke="#7608a8"></path><path d="M103 263.1L140 284.1L163 239.3Z" fill="#00296e" stroke="#00296e"></path><path d="M344 556.1L278 528.1L295 600Z" fill="#00172c" stroke="#00172c"></path><path d="M326 600L344 556.1L295 600Z" fill="#00224e" stroke="#00224e"></path><path d="M128 194.4L103 263.1L163 239.3Z" fill="#00224e" stroke="#00224e"></path><path d="M585 0L570 0L598 71.7Z" fill="#00101c" stroke="#00101c"></path><path d="M527 12.9L570 0L474 0Z" fill="#00101c" stroke="#00101c"></path><path d="M295 600L278 528.1L233 590.1Z" fill="#2f298a" stroke="#2f298a"></path><path d="M763 278L753 282.1L786 330.9Z" fill="#001d3d" stroke="#001d3d"></path><path d="M736 311L753 282.1L692 288.1Z" fill="#00296e" stroke="#00296e"></path><path d="M705 205.3L741 191.4L692 185.4Z" fill="#2f298a" stroke="#2f298a"></path><path d="M288 0L244 16.9L291 40.9Z" fill="#7608a8" stroke="#7608a8"></path><path d="M753 282.1L741 191.4L705 205.3Z" fill="#7608a8" stroke="#7608a8"></path><path d="M615 8.9L585 0L598 71.7Z" fill="#462696" stroke="#462696"></path><path d="M741 191.4L729 153.6L692 185.4Z" fill="#00296e" stroke="#00296e"></path><path d="M641 64.9L615 8.9L598 71.7Z" fill="#192a7d" stroke="#192a7d"></path><path d="M569 600L531 517.3L521 575.1Z" fill="#00296e" stroke="#00296e"></path><path d="M612 530.3L659 531.1L614 528.1Z" fill="#00101c" stroke="#00101c"></path><path d="M685 464.6L747 412.6L684 385.7Z" fill="#2f298a" stroke="#2f298a"></path><path d="M233 590.1L278 528.1L214 580.1Z" fill="#00224e" stroke="#00224e"></path><path d="M786 330.9L753 282.1L736 311Z" fill="#00224e" stroke="#00224e"></path><path d="M753 282.1L763 278L741 191.4Z" fill="#00172c" stroke="#00172c"></path><path d="M729 153.6L713 113.6L692 185.4Z" fill="#00265e" stroke="#00265e"></path><path d="M640 0L615 8.9L641 64.9Z" fill="#00296e" stroke="#00296e"></path><path d="M98 104.7L128 194.4L171 145.6Z" fill="#00265e" stroke="#00265e"></path><path d="M128 194.4L99 197.4L103 263.1Z" fill="#7608a8" stroke="#7608a8"></path><path d="M103 263.1L71 287L103 278Z" fill="#00172c" stroke="#00172c"></path><path d="M496 600L569 600L521 575.1Z" fill="#5e1ea0" stroke="#5e1ea0"></path><path d="M118 357.9L111 421.7L154 398.6Z" fill="#00224e" stroke="#00224e"></path><path d="M150 457.6L157 508.4L223 457.6Z" fill="#2f298a" stroke="#2f298a"></path><path d="M69 354.7L111 421.7L118 357.9Z" fill="#2f298a" stroke="#2f298a"></path><path d="M191 79.7L142 100.7L204 101.6Z" fill="#00101c" stroke="#00101c"></path><path d="M155 68.7L142 100.7L191 79.7Z" fill="#00296e" stroke="#00296e"></path><path d="M726 480.4L747 412.6L685 464.6Z" fill="#00101c" stroke="#00101c"></path><path d="M733 359.9L786 330.9L736 311Z" fill="#462696" stroke="#462696"></path><path d="M713 113.6L684 61.7L649 123.6Z" fill="#00172c" stroke="#00172c"></path><path d="M640 0L612 0L615 8.9Z" fill="#00224e" stroke="#00224e"></path><path d="M615 8.9L612 0L585 0Z" fill="#00265e" stroke="#00265e"></path><path d="M151 507.4L157 508.4L150 457.6Z" fill="#00265e" stroke="#00265e"></path><path d="M659 531.1L700 504.3L652 493.3Z" fill="#00224e" stroke="#00224e"></path><path d="M700 544.1L700 504.3L659 531.1Z" fill="#001d3d" stroke="#001d3d"></path><path d="M99 197.4L89 200.3L103 263.1Z" fill="#00172c" stroke="#00172c"></path><path d="M103 278L69 309.9L118 357.9Z" fill="#7608a8" stroke="#7608a8"></path><path d="M67 181.4L89 200.3L99 197.4Z" fill="#7608a8" stroke="#7608a8"></path><path d="M91 505.3L151 507.4L150 457.6Z" fill="#5e1ea0" stroke="#5e1ea0"></path><path d="M157 508.4L166 527.3L229 502.4Z" fill="#462696" stroke="#462696"></path><path d="M170 22.9L155 68.7L191 79.7Z" fill="#192a7d" stroke="#192a7d"></path><path d="M98 104.7L67 181.4L99 197.4Z" fill="#001d3d" stroke="#001d3d"></path><path d="M148 534.3L166 527.3L157 508.4Z" fill="#462696" stroke="#462696"></path><path d="M700 504.3L726 480.4L685 464.6Z" fill="#462696" stroke="#462696"></path><path d="M33 231.1L71 287L103 263.1Z" fill="#00172c" stroke="#00172c"></path><path d="M737 27.9L704 69.7L792 67.7Z" fill="#00224e" stroke="#00224e"></path><path d="M713 113.6L704 69.7L684 61.7Z" fill="#00101c" stroke="#00101c"></path><path d="M689 41.9L640 0L641 64.9Z" fill="#00224e" stroke="#00224e"></path><path d="M792 67.7L713 113.6L729 153.6Z" fill="#7608a8" stroke="#7608a8"></path><path d="M288 0L222 0L244 16.9Z" fill="#001d3d" stroke="#001d3d"></path><path d="M244 16.9L213 0L191 79.7Z" fill="#001d3d" stroke="#001d3d"></path><path d="M763 278L765 183.3L741 191.4Z" fill="#462696" stroke="#462696"></path><path d="M741 191.4L765 183.3L729 153.6Z" fill="#001d3d" stroke="#001d3d"></path><path d="M111 421.7L106 446.6L150 457.6Z" fill="#00224e" stroke="#00224e"></path><path d="M48 404.6L106 446.6L111 421.7Z" fill="#2f298a" stroke="#2f298a"></path><path d="M214 580.1L278 528.1L231 509.3Z" fill="#7608a8" stroke="#7608a8"></path><path d="M71 287L69 309.9L103 278Z" fill="#00296e" stroke="#00296e"></path><path d="M737 27.9L700 59.9L704 69.7Z" fill="#00101c" stroke="#00101c"></path><path d="M704 69.7L700 59.9L684 61.7Z" fill="#00101c" stroke="#00101c"></path><path d="M166 527.3L214 580.1L231 509.3Z" fill="#00172c" stroke="#00172c"></path><path d="M569 600L608 600L612 530.3Z" fill="#462696" stroke="#462696"></path><path d="M700 504.3L753 528.3L726 480.4Z" fill="#001d3d" stroke="#001d3d"></path><path d="M772 390.7L718 378.7L747 412.6Z" fill="#462696" stroke="#462696"></path><path d="M772 390.7L773 386.7L733 359.9Z" fill="#5e1ea0" stroke="#5e1ea0"></path><path d="M763 278L802 193.3L765 183.3Z" fill="#001d3d" stroke="#001d3d"></path><path d="M773 409.6L772 390.7L747 412.6Z" fill="#001d3d" stroke="#001d3d"></path><path d="M222 0L213 0L244 16.9Z" fill="#2f298a" stroke="#2f298a"></path><path d="M608 600L613 600L612 530.3Z" fill="#462696" stroke="#462696"></path><path d="M689 41.9L641 64.9L684 61.7Z" fill="#5e1ea0" stroke="#5e1ea0"></path><path d="M773 386.7L786 330.9L733 359.9Z" fill="#5e1ea0" stroke="#5e1ea0"></path><path d="M700 59.9L689 41.9L684 61.7Z" fill="#5e1ea0" stroke="#5e1ea0"></path><path d="M69 309.9L69 354.7L118 357.9Z" fill="#00101c" stroke="#00101c"></path><path d="M789 443.4L773 409.6L747 412.6Z" fill="#192a7d" stroke="#192a7d"></path><path d="M772 390.7L828 373.9L773 386.7Z" fill="#2f298a" stroke="#2f298a"></path><path d="M828 373.9L828 325L786 330.9Z" fill="#192a7d" stroke="#192a7d"></path><path d="M151 507.4L148 534.3L157 508.4Z" fill="#001d3d" stroke="#001d3d"></path><path d="M166 527.3L179 579.1L214 580.1Z" fill="#00172c" stroke="#00172c"></path><path d="M125 527.1L148 534.3L151 507.4Z" fill="#7608a8" stroke="#7608a8"></path><path d="M213 0L170 22.9L191 79.7Z" fill="#00172c" stroke="#00172c"></path><path d="M97 57.9L98 104.7L142 100.7Z" fill="#5e1ea0" stroke="#5e1ea0"></path><path d="M194 600L221 600L214 580.1Z" fill="#00265e" stroke="#00265e"></path><path d="M214 580.1L221 600L233 590.1Z" fill="#00265e" stroke="#00265e"></path><path d="M233 590.1L221 600L295 600Z" fill="#5e1ea0" stroke="#5e1ea0"></path><path d="M654 600L700 544.1L659 531.1Z" fill="#192a7d" stroke="#192a7d"></path><path d="M726 480.4L789 443.4L747 412.6Z" fill="#7608a8" stroke="#7608a8"></path><path d="M170 22.9L148 41.9L155 68.7Z" fill="#192a7d" stroke="#192a7d"></path><path d="M98 104.7L171 145.6L142 100.7Z" fill="#00172c" stroke="#00172c"></path><path d="M89 200.3L33 231.1L103 263.1Z" fill="#5e1ea0" stroke="#5e1ea0"></path><path d="M23 321L69 354.7L69 309.9Z" fill="#00224e" stroke="#00224e"></path><path d="M38 404.7L48 404.6L23 356.9Z" fill="#7608a8" stroke="#7608a8"></path><path d="M97 57.9L142 100.7L155 68.7Z" fill="#462696" stroke="#462696"></path><path d="M148 534.3L179 579.1L166 527.3Z" fill="#00296e" stroke="#00296e"></path><path d="M91 505.3L150 457.6L106 446.6Z" fill="#00172c" stroke="#00172c"></path><path d="M91 505.3L125 527.1L151 507.4Z" fill="#7608a8" stroke="#7608a8"></path><path d="M148 534.3L114 600L179 579.1Z" fill="#00101c" stroke="#00101c"></path><path d="M613 600L654 600L612 530.3Z" fill="#00296e" stroke="#00296e"></path><path d="M114 600L194 600L179 579.1Z" fill="#2f298a" stroke="#2f298a"></path><path d="M179 579.1L194 600L214 580.1Z" fill="#00224e" stroke="#00224e"></path><path d="M818 202.3L802 193.3L763 278Z" fill="#001d3d" stroke="#001d3d"></path><path d="M765 183.3L794 166.4L729 153.6Z" fill="#192a7d" stroke="#192a7d"></path><path d="M700 59.9L737 27.9L689 41.9Z" fill="#00265e" stroke="#00265e"></path><path d="M802 193.3L794 166.4L765 183.3Z" fill="#00172c" stroke="#00172c"></path><path d="M753 528.3L700 504.3L700 544.1Z" fill="#462696" stroke="#462696"></path><path d="M787 512.3L789 443.4L726 480.4Z" fill="#192a7d" stroke="#192a7d"></path><path d="M773 409.6L828 373.9L772 390.7Z" fill="#5e1ea0" stroke="#5e1ea0"></path><path d="M834 259.1L818 202.3L763 278Z" fill="#00224e" stroke="#00224e"></path><path d="M69 354.7L48 404.6L111 421.7Z" fill="#462696" stroke="#462696"></path><path d="M23 321L69 309.9L71 287Z" fill="#7608a8" stroke="#7608a8"></path><path d="M14 188.3L33 231.1L67 181.4Z" fill="#462696" stroke="#462696"></path><path d="M67 181.4L33 231.1L89 200.3Z" fill="#7608a8" stroke="#7608a8"></path><path d="M74 498.4L91 505.3L106 446.6Z" fill="#192a7d" stroke="#192a7d"></path><path d="M125 527.1L95 556.1L148 534.3Z" fill="#00265e" stroke="#00265e"></path><path d="M48 404.6L63 461.4L106 446.6Z" fill="#7608a8" stroke="#7608a8"></path><path d="M833 291.1L763 278L786 330.9Z" fill="#00101c" stroke="#00101c"></path><path d="M802 193.3L818 202.3L794 166.4Z" fill="#2f298a" stroke="#2f298a"></path><path d="M75 73.7L63 117.6L98 104.7Z" fill="#001d3d" stroke="#001d3d"></path><path d="M98 104.7L63 117.6L67 181.4Z" fill="#00265e" stroke="#00265e"></path><path d="M148 41.9L97 57.9L155 68.7Z" fill="#462696" stroke="#462696"></path><path d="M135 0L97 57.9L148 41.9Z" fill="#00265e" stroke="#00265e"></path><path d="M135 0L148 41.9L170 22.9Z" fill="#00224e" stroke="#00224e"></path><path d="M828 373.9L786 330.9L773 386.7Z" fill="#00296e" stroke="#00296e"></path><path d="M748 547.1L753 528.3L700 544.1Z" fill="#5e1ea0" stroke="#5e1ea0"></path><path d="M0 293L23 321L71 287Z" fill="#00296e" stroke="#00296e"></path><path d="M48 404.6L38 404.7L63 461.4Z" fill="#192a7d" stroke="#192a7d"></path><path d="M23 356.9L48 404.6L69 354.7Z" fill="#00296e" stroke="#00296e"></path><path d="M828 325L833 291.1L786 330.9Z" fill="#00296e" stroke="#00296e"></path><path d="M738 0L737 27.9L740 0Z" fill="#00296e" stroke="#00296e"></path><path d="M792 67.7L704 69.7L713 113.6Z" fill="#2f298a" stroke="#2f298a"></path><path d="M689 41.9L738 0L640 0Z" fill="#00296e" stroke="#00296e"></path><path d="M23 321L23 356.9L69 354.7Z" fill="#2f298a" stroke="#2f298a"></path><path d="M654 600L693 600L700 544.1Z" fill="#7608a8" stroke="#7608a8"></path><path d="M0 482.4L74 498.4L63 461.4Z" fill="#00296e" stroke="#00296e"></path><path d="M63 461.4L74 498.4L106 446.6Z" fill="#2f298a" stroke="#2f298a"></path><path d="M91 505.3L95 556.1L125 527.1Z" fill="#001d3d" stroke="#001d3d"></path><path d="M833 291.1L834 259.1L763 278Z" fill="#00101c" stroke="#00101c"></path><path d="M828 325L889 321L833 291.1Z" fill="#00265e" stroke="#00265e"></path><path d="M841 387.7L828 373.9L773 409.6Z" fill="#00172c" stroke="#00172c"></path><path d="M841 387.7L773 409.6L841 429.6Z" fill="#00265e" stroke="#00265e"></path><path d="M727 580.1L748 547.1L700 544.1Z" fill="#5e1ea0" stroke="#5e1ea0"></path><path d="M753 528.3L787 512.3L726 480.4Z" fill="#00224e" stroke="#00224e"></path><path d="M213 0L135 0L170 22.9Z" fill="#5e1ea0" stroke="#5e1ea0"></path><path d="M68 0L75 73.7L97 57.9Z" fill="#7608a8" stroke="#7608a8"></path><path d="M97 57.9L75 73.7L98 104.7Z" fill="#462696" stroke="#462696"></path><path d="M693 600L727 580.1L700 544.1Z" fill="#2f298a" stroke="#2f298a"></path><path d="M787 600L787 512.3L748 547.1Z" fill="#00224e" stroke="#00224e"></path><path d="M748 547.1L787 512.3L753 528.3Z" fill="#192a7d" stroke="#192a7d"></path><path d="M74 498.4L95 556.1L91 505.3Z" fill="#00224e" stroke="#00224e"></path><path d="M18 536.3L95 556.1L74 498.4Z" fill="#7608a8" stroke="#7608a8"></path><path d="M13 137.6L14 188.3L67 181.4Z" fill="#00265e" stroke="#00265e"></path><path d="M33 231.1L0 293L71 287Z" fill="#5e1ea0" stroke="#5e1ea0"></path><path d="M23 321L0 314.9L23 356.9Z" fill="#00296e" stroke="#00296e"></path><path d="M0 185.3L14 188.3L0 170.4Z" fill="#192a7d" stroke="#192a7d"></path><path d="M0 248.1L0 293L33 231.1Z" fill="#00224e" stroke="#00224e"></path><path d="M23 356.9L0 403.7L38 404.7Z" fill="#00101c" stroke="#00101c"></path><path d="M841 429.6L773 409.6L789 443.4Z" fill="#001d3d" stroke="#001d3d"></path><path d="M828 373.9L889 321L828 325Z" fill="#00101c" stroke="#00101c"></path><path d="M833 291.1L900 237.1L834 259.1Z" fill="#7608a8" stroke="#7608a8"></path><path d="M740 0L737 27.9L781 0Z" fill="#00101c" stroke="#00101c"></path><path d="M737 27.9L738 0L689 41.9Z" fill="#7608a8" stroke="#7608a8"></path><path d="M0 293L0 314.9L23 321Z" fill="#00172c" stroke="#00172c"></path><path d="M38 404.7L0 481.3L63 461.4Z" fill="#00296e" stroke="#00296e"></path><path d="M787 512.3L817 463.4L789 443.4Z" fill="#00101c" stroke="#00101c"></path><path d="M792 67.7L729 153.6L821 108.7Z" fill="#7608a8" stroke="#7608a8"></path><path d="M14 188.3L0 248.1L33 231.1Z" fill="#2f298a" stroke="#2f298a"></path><path d="M821 108.7L794 166.4L880 157.4Z" fill="#2f298a" stroke="#2f298a"></path><path d="M821 108.7L729 153.6L794 166.4Z" fill="#462696" stroke="#462696"></path><path d="M880 157.4L794 166.4L818 202.3Z" fill="#00101c" stroke="#00101c"></path><path d="M823 477.4L841 429.6L817 463.4Z" fill="#462696" stroke="#462696"></path><path d="M817 463.4L841 429.6L789 443.4Z" fill="#462696" stroke="#462696"></path><path d="M842 530.3L823 477.4L787 512.3Z" fill="#7608a8" stroke="#7608a8"></path><path d="M787 512.3L823 477.4L817 463.4Z" fill="#001d3d" stroke="#001d3d"></path><path d="M13 137.6L67 181.4L63 117.6Z" fill="#00224e" stroke="#00224e"></path><path d="M14 188.3L0 185.3L0 248.1Z" fill="#2f298a" stroke="#2f298a"></path><path d="M95 556.1L114 600L148 534.3Z" fill="#00224e" stroke="#00224e"></path><path d="M0 113.7L63 117.6L0 72.9Z" fill="#00265e" stroke="#00265e"></path><path d="M0 113.7L13 137.6L63 117.6Z" fill="#462696" stroke="#462696"></path><path d="M0 314.9L0 403.7L23 356.9Z" fill="#7608a8" stroke="#7608a8"></path><path d="M95 556.1L111 600L114 600Z" fill="#00265e" stroke="#00265e"></path><path d="M822 58.9L821 94.6L863 100.6Z" fill="#00296e" stroke="#00296e"></path><path d="M821 108.7L821 94.6L792 67.7Z" fill="#00172c" stroke="#00172c"></path><path d="M792 67.7L781 0L737 27.9Z" fill="#001d3d" stroke="#001d3d"></path><path d="M0 403.7L0 405.6L38 404.7Z" fill="#00265e" stroke="#00265e"></path><path d="M40 600L111 600L95 556.1Z" fill="#192a7d" stroke="#192a7d"></path><path d="M13 137.6L0 170.4L14 188.3Z" fill="#00172c" stroke="#00172c"></path><path d="M0 113.7L0 151.6L13 137.6Z" fill="#00265e" stroke="#00265e"></path><path d="M13 137.6L0 151.6L0 170.4Z" fill="#2f298a" stroke="#2f298a"></path><path d="M822 58.9L812 46.9L792 67.7Z" fill="#462696" stroke="#462696"></path><path d="M823 477.4L863 428.6L841 429.6Z" fill="#192a7d" stroke="#192a7d"></path><path d="M841 429.6L863 428.6L841 387.7Z" fill="#00224e" stroke="#00224e"></path><path d="M841 387.7L889 321L828 373.9Z" fill="#462696" stroke="#462696"></path><path d="M863 100.6L821 94.6L821 108.7Z" fill="#7608a8" stroke="#7608a8"></path><path d="M880 157.4L818 202.3L900 207.3Z" fill="#7608a8" stroke="#7608a8"></path><path d="M821 94.6L822 58.9L792 67.7Z" fill="#192a7d" stroke="#192a7d"></path><path d="M812 46.9L781 0L792 67.7Z" fill="#462696" stroke="#462696"></path><path d="M835 0L781 0L812 46.9Z" fill="#7608a8" stroke="#7608a8"></path><path d="M135 0L68 0L97 57.9Z" fill="#001d3d" stroke="#001d3d"></path><path d="M0 72.9L63 117.6L75 73.7Z" fill="#00265e" stroke="#00265e"></path><path d="M900 328.9L889 321L900 333Z" fill="#5e1ea0" stroke="#5e1ea0"></path><path d="M0 405.6L0 481.3L38 404.7Z" fill="#192a7d" stroke="#192a7d"></path><path d="M0 481.3L0 482.4L63 461.4Z" fill="#00296e" stroke="#00296e"></path><path d="M68 0L55 0L75 73.7Z" fill="#00101c" stroke="#00101c"></path><path d="M900 207.3L818 202.3L834 259.1Z" fill="#001d3d" stroke="#001d3d"></path><path d="M693 600L787 600L727 580.1Z" fill="#00224e" stroke="#00224e"></path><path d="M727 580.1L787 600L748 547.1Z" fill="#5e1ea0" stroke="#5e1ea0"></path><path d="M900 467.4L900 444.6L863 428.6Z" fill="#5e1ea0" stroke="#5e1ea0"></path><path d="M900 333L889 321L841 387.7Z" fill="#00101c" stroke="#00101c"></path><path d="M889 321L900 237.1L833 291.1Z" fill="#00172c" stroke="#00172c"></path><path d="M900 382.7L900 333L841 387.7Z" fill="#5e1ea0" stroke="#5e1ea0"></path><path d="M0 482.4L18 536.3L74 498.4Z" fill="#00101c" stroke="#00101c"></path><path d="M880 157.4L863 100.6L821 108.7Z" fill="#00296e" stroke="#00296e"></path><path d="M822 58.9L835 0L812 46.9Z" fill="#5e1ea0" stroke="#5e1ea0"></path><path d="M900 328.9L900 237.1L889 321Z" fill="#7608a8" stroke="#7608a8"></path><path d="M18 536.3L40 573.1L95 556.1Z" fill="#5e1ea0" stroke="#5e1ea0"></path><path d="M11 7.9L0 72.9L75 73.7Z" fill="#192a7d" stroke="#192a7d"></path><path d="M839 540.1L842 530.3L787 512.3Z" fill="#5e1ea0" stroke="#5e1ea0"></path><path d="M863 428.6L900 382.7L841 387.7Z" fill="#00172c" stroke="#00172c"></path><path d="M900 237.1L900 207.3L834 259.1Z" fill="#7608a8" stroke="#7608a8"></path><path d="M880 157.4L883 102.7L863 100.6Z" fill="#001d3d" stroke="#001d3d"></path><path d="M787 600L839 540.1L787 512.3Z" fill="#00172c" stroke="#00172c"></path><path d="M863 428.6L823 477.4L900 467.4Z" fill="#001d3d" stroke="#001d3d"></path><path d="M900 444.6L900 382.7L863 428.6Z" fill="#2f298a" stroke="#2f298a"></path><path d="M900 207.3L900 173.4L880 157.4Z" fill="#7608a8" stroke="#7608a8"></path><path d="M900 112.6L883 102.7L880 157.4Z" fill="#5e1ea0" stroke="#5e1ea0"></path><path d="M863 100.6L900 74.9L822 58.9Z" fill="#001d3d" stroke="#001d3d"></path><path d="M40 573.1L40 600L95 556.1Z" fill="#00172c" stroke="#00172c"></path><path d="M0 587.1L40 600L40 573.1Z" fill="#00265e" stroke="#00265e"></path><path d="M900 467.4L823 477.4L842 530.3Z" fill="#462696" stroke="#462696"></path><path d="M787 600L835 581.1L839 540.1Z" fill="#2f298a" stroke="#2f298a"></path><path d="M900 540.3L900 467.4L842 530.3Z" fill="#00224e" stroke="#00224e"></path><path d="M818 600L835 581.1L787 600Z" fill="#192a7d" stroke="#192a7d"></path><path d="M900 74.9L835 0L822 58.9Z" fill="#7608a8" stroke="#7608a8"></path><path d="M55 0L11 7.9L75 73.7Z" fill="#00172c" stroke="#00172c"></path><path d="M900 540.3L842 530.3L839 540.1Z" fill="#00101c" stroke="#00101c"></path><path d="M900 173.4L900 112.6L880 157.4Z" fill="#00265e" stroke="#00265e"></path><path d="M883 102.7L900 74.9L863 100.6Z" fill="#00296e" stroke="#00296e"></path><path d="M900 112.6L900 108.7L883 102.7Z" fill="#00172c" stroke="#00172c"></path><path d="M818 600L832 600L835 581.1Z" fill="#001d3d" stroke="#001d3d"></path><path d="M900 552.1L900 540.3L839 540.1Z" fill="#192a7d" stroke="#192a7d"></path><path d="M55 0L0 0L11 7.9Z" fill="#7608a8" stroke="#7608a8"></path><path d="M11 7.9L0 0L0 72.9Z" fill="#462696" stroke="#462696"></path><path d="M0 482.4L0 587.1L18 536.3Z" fill="#00224e" stroke="#00224e"></path><path d="M18 536.3L0 587.1L40 573.1Z" fill="#00172c" stroke="#00172c"></path><path d="M900 108.7L900 74.9L883 102.7Z" fill="#00296e" stroke="#00296e"></path><path d="M0 587.1L0 600L40 600Z" fill="#462696" stroke="#462696"></path><path d="M900 552.1L839 540.1L835 581.1Z" fill="#00101c" stroke="#00101c"></path><path d="M900 600L900 552.1L835 581.1Z" fill="#2f298a" stroke="#2f298a"></path><path d="M900 74.9L900 0L835 0Z" fill="#462696" stroke="#462696"></path><path d="M832 600L900 600L835 581.1Z" fill="#5e1ea0" stroke="#5e1ea0"></path></g></svg>