<svg id="visual" viewBox="0 0 1200 540" width="1200" height="540" xmlns="http://www.w3.org/2000/svg" xmlns:xlink="http://www.w3.org/1999/xlink" version="1.1"><rect x="0" y="0" width="1200" height="540" fill="#171717"></rect><g fill="none" stroke="#990ADB" stroke-width="2"><circle r="46" cx="395" cy="190"></circle><circle r="10" cx="1090" cy="71"></circle><circle r="30" cx="245" cy="67"></circle><circle r="16" cx="751" cy="225"></circle><circle r="21" cx="68" cy="246"></circle><circle r="22" cx="138" cy="433"></circle><circle r="22" cx="816" cy="49"></circle><circle r="40" cx="83" cy="82"></circle><circle r="37" cx="652" cy="195"></circle><circle r="28" cx="901" cy="457"></circle><circle r="37" cx="222" cy="238"></circle><circle r="29" cx="525" cy="134"></circle><circle r="25" cx="347" cy="347"></circle><circle r="10" cx="623" cy="338"></circle><circle r="10" cx="900" cy="155"></circle><circle r="21" cx="463" cy="327"></circle><circle r="9" cx="403" cy="456"></circle><circle r="24" cx="989" cy="270"></circle><circle r="35" cx="1042" cy="478"></circle><circle r="26" cx="251" cy="469"></circle><circle r="20" cx="503" cy="233"></circle><circle r="36" cx="1055" cy="191"></circle><circle r="23" cx="733" cy="427"></circle><circle r="17" cx="1017" cy="368"></circle><circle r="25" cx="863" cy="301"></circle><circle r="33" cx="694" cy="82"></circle><circle r="14" cx="533" cy="441"></circle><circle r="33" cx="393" cy="48"></circle><circle r="29" cx="156" cy="152"></circle><circle r="12" cx="230" cy="372"></circle><circle r="23" cx="736" cy="322"></circle><circle r="44" cx="960" cy="62"></circle><circle r="15" cx="1126" cy="411"></circle></g></svg>