<svg id="visual" viewBox="0 0 900 600" width="900" height="600" xmlns="http://www.w3.org/2000/svg" xmlns:xlink="http://www.w3.org/1999/xlink" version="1.1"><g fill="#8C58EB"><circle r="27" cx="263" cy="35"></circle><circle r="12" cx="273" cy="240"></circle><circle r="13" cx="52" cy="196"></circle><circle r="20" cx="553" cy="420"></circle><circle r="24" cx="348" cy="122"></circle><circle r="20" cx="263" cy="398"></circle><circle r="16" cx="834" cy="48"></circle><circle r="13" cx="16" cy="484"></circle><circle r="19" cx="490" cy="409"></circle><circle r="14" cx="379" cy="221"></circle><circle r="24" cx="55" cy="574"></circle><circle r="12" cx="81" cy="310"></circle><circle r="14" cx="522" cy="96"></circle><circle r="25" cx="298" cy="462"></circle><circle r="21" cx="257" cy="567"></circle><circle r="19" cx="825" cy="495"></circle><circle r="15" cx="712" cy="169"></circle><circle r="14" cx="707" cy="528"></circle><circle r="18" cx="113" cy="357"></circle><circle r="24" cx="247" cy="345"></circle><circle r="25" cx="442" cy="29"></circle><circle r="14" cx="535" cy="194"></circle><circle r="11" cx="564" cy="569"></circle><circle r="24" cx="536" cy="264"></circle><circle r="17" cx="878" cy="508"></circle><circle r="19" cx="156" cy="68"></circle><circle r="20" cx="175" cy="321"></circle><circle r="15" cx="202" cy="102"></circle><circle r="13" cx="359" cy="588"></circle><circle r="21" cx="848" cy="557"></circle><circle r="20" cx="27" cy="253"></circle><circle r="24" cx="392" cy="429"></circle><circle r="24" cx="879" cy="206"></circle><circle r="11" cx="117" cy="498"></circle><circle r="12" cx="179" cy="377"></circle><circle r="18" cx="167" cy="7"></circle><circle r="16" cx="630" cy="235"></circle><circle r="16" cx="458" cy="308"></circle><circle r="21" cx="783" cy="332"></circle><circle r="21" cx="155" cy="200"></circle><circle r="19" cx="741" cy="439"></circle><circle r="21" cx="656" cy="510"></circle><circle r="14" cx="671" cy="26"></circle><circle r="23" cx="478" cy="528"></circle><circle r="20" cx="418" cy="146"></circle><circle r="23" cx="824" cy="243"></circle><circle r="15" cx="545" cy="478"></circle></g></svg>