<svg id="visual" viewBox="0 0 900 600" preserveAspectRatio="none" xmlns="http://www.w3.org/2000/svg" xmlns:xlink="http://www.w3.org/1999/xlink" version="1.1"><path d="M0 393L21.5 399.7C43 406.3 86 419.7 128.8 426.3C171.7 433 214.3 433 257.2 421.3C300 409.7 343 386.3 385.8 378.7C428.7 371 471.3 379 514.2 390.2C557 401.3 600 415.7 642.8 415.7C685.7 415.7 728.3 401.3 771.2 393.8C814 386.3 857 385.7 878.5 385.3L900 385L900 0L878.5 0C857 0 814 0 771.2 0C728.3 0 685.7 0 642.8 0C600 0 557 0 514.2 0C471.3 0 428.7 0 385.8 0C343 0 300 0 257.2 0C214.3 0 171.7 0 128.8 0C86 0 43 0 21.5 0L0 0Z" fill="#f771a0"></path><path d="M0 339L21.5 332.7C43 326.3 86 313.7 128.8 316.2C171.7 318.7 214.3 336.3 257.2 339.5C300 342.7 343 331.3 385.8 321.2C428.7 311 471.3 302 514.2 308.2C557 314.3 600 335.7 642.8 344.8C685.7 354 728.3 351 771.2 344.7C814 338.3 857 328.7 878.5 323.8L900 319L900 0L878.5 0C857 0 814 0 771.2 0C728.3 0 685.7 0 642.8 0C600 0 557 0 514.2 0C471.3 0 428.7 0 385.8 0C343 0 300 0 257.2 0C214.3 0 171.7 0 128.8 0C86 0 43 0 21.5 0L0 0Z" fill="#f76295"></path><path d="M0 233L21.5 236C43 239 86 245 128.8 250.3C171.7 255.7 214.3 260.3 257.2 262.3C300 264.3 343 263.7 385.8 259.5C428.7 255.3 471.3 247.7 514.2 250.2C557 252.7 600 265.3 642.8 266.8C685.7 268.3 728.3 258.7 771.2 250.5C814 242.3 857 235.7 878.5 232.3L900 229L900 0L878.5 0C857 0 814 0 771.2 0C728.3 0 685.7 0 642.8 0C600 0 557 0 514.2 0C471.3 0 428.7 0 385.8 0C343 0 300 0 257.2 0C214.3 0 171.7 0 128.8 0C86 0 43 0 21.5 0L0 0Z" fill="#f75289"></path><path d="M0 155L21.5 161.2C43 167.3 86 179.7 128.8 180.7C171.7 181.7 214.3 171.3 257.2 168.8C300 166.3 343 171.7 385.8 177C428.7 182.3 471.3 187.7 514.2 188.8C557 190 600 187 642.8 180.2C685.7 173.3 728.3 162.7 771.2 163.7C814 164.7 857 177.3 878.5 183.7L900 190L900 0L878.5 0C857 0 814 0 771.2 0C728.3 0 685.7 0 642.8 0C600 0 557 0 514.2 0C471.3 0 428.7 0 385.8 0C343 0 300 0 257.2 0C214.3 0 171.7 0 128.8 0C86 0 43 0 21.5 0L0 0Z" fill="#f63f7c"></path><path d="M0 118L21.5 111.5C43 105 86 92 128.8 87.8C171.7 83.7 214.3 88.3 257.2 89.2C300 90 343 87 385.8 90.7C428.7 94.3 471.3 104.7 514.2 104C557 103.3 600 91.7 642.8 87.5C685.7 83.3 728.3 86.7 771.2 90.8C814 95 857 100 878.5 102.5L900 105L900 0L878.5 0C857 0 814 0 771.2 0C728.3 0 685.7 0 642.8 0C600 0 557 0 514.2 0C471.3 0 428.7 0 385.8 0C343 0 300 0 257.2 0C214.3 0 171.7 0 128.8 0C86 0 43 0 21.5 0L0 0Z" fill="#f5276f"></path></svg>