<svg id="visual" viewBox="0 0 960 540" preserveAspectRatio="none" xmlns="http://www.w3.org/2000/svg" xmlns:xlink="http://www.w3.org/1999/xlink" version="1.1"><path d="M0 71L11.5 72.8C23 74.7 46 78.3 68.8 81C91.7 83.7 114.3 85.3 137.2 89.8C160 94.3 183 101.7 205.8 100C228.7 98.3 251.3 87.7 274.2 82.3C297 77 320 77 342.8 77.8C365.7 78.7 388.3 80.3 411.2 83C434 85.7 457 89.3 480 93C503 96.7 526 100.3 548.8 97.7C571.7 95 594.3 86 617.2 80.5C640 75 663 73 685.8 76.5C708.7 80 731.3 89 754.2 89C777 89 800 80 822.8 76.5C845.7 73 868.3 75 891.2 76C914 77 937 77 948.5 77L960 77L960 0L948.5 0C937 0 914 0 891.2 0C868.3 0 845.7 0 822.8 0C800 0 777 0 754.2 0C731.3 0 708.7 0 685.8 0C663 0 640 0 617.2 0C594.3 0 571.7 0 548.8 0C526 0 503 0 480 0C457 0 434 0 411.2 0C388.3 0 365.7 0 342.8 0C320 0 297 0 274.2 0C251.3 0 228.7 0 205.8 0C183 0 160 0 137.2 0C114.3 0 91.7 0 68.8 0C46 0 23 0 11.5 0L0 0Z" fill="#f5f5f4"></path><path d="M0 136L11.5 137.8C23 139.7 46 143.3 68.8 143.3C91.7 143.3 114.3 139.7 137.2 142.3C160 145 183 154 205.8 154C228.7 154 251.3 145 274.2 139.7C297 134.3 320 132.7 342.8 134.5C365.7 136.3 388.3 141.7 411.2 146.2C434 150.7 457 154.3 480 157.8C503 161.3 526 164.7 548.8 159.2C571.7 153.7 594.3 139.3 617.2 131.3C640 123.3 663 121.7 685.8 125.3C708.7 129 731.3 138 754.2 138.8C777 139.7 800 132.3 822.8 130.5C845.7 128.7 868.3 132.3 891.2 134.2C914 136 937 136 948.5 136L960 136L960 75L948.5 75C937 75 914 75 891.2 74C868.3 73 845.7 71 822.8 74.5C800 78 777 87 754.2 87C731.3 87 708.7 78 685.8 74.5C663 71 640 73 617.2 78.5C594.3 84 571.7 93 548.8 95.7C526 98.3 503 94.7 480 91C457 87.3 434 83.7 411.2 81C388.3 78.3 365.7 76.7 342.8 75.8C320 75 297 75 274.2 80.3C251.3 85.7 228.7 96.3 205.8 98C183 99.7 160 92.3 137.2 87.8C114.3 83.3 91.7 81.7 68.8 79C46 76.3 23 72.7 11.5 70.8L0 69Z" fill="#eaaf81"></path><path d="M0 287L11.5 285.2C23 283.3 46 279.7 68.8 280.7C91.7 281.7 114.3 287.3 137.2 292.8C160 298.3 183 303.7 205.8 299.2C228.7 294.7 251.3 280.3 274.2 270.3C297 260.3 320 254.7 342.8 252.8C365.7 251 388.3 253 411.2 258.5C434 264 457 273 480 281C503 289 526 296 548.8 296C571.7 296 594.3 289 617.2 282.8C640 276.7 663 271.3 685.8 269.5C708.7 267.7 731.3 269.3 754.2 271C777 272.7 800 274.3 822.8 269.8C845.7 265.3 868.3 254.7 891.2 251.2C914 247.7 937 251.3 948.5 253.2L960 255L960 134L948.5 134C937 134 914 134 891.2 132.2C868.3 130.3 845.7 126.7 822.8 128.5C800 130.3 777 137.7 754.2 136.8C731.3 136 708.7 127 685.8 123.3C663 119.7 640 121.3 617.2 129.3C594.3 137.3 571.7 151.7 548.8 157.2C526 162.7 503 159.3 480 155.8C457 152.3 434 148.7 411.2 144.2C388.3 139.7 365.7 134.3 342.8 132.5C320 130.7 297 132.3 274.2 137.7C251.3 143 228.7 152 205.8 152C183 152 160 143 137.2 140.3C114.3 137.7 91.7 141.3 68.8 141.3C46 141.3 23 137.7 11.5 135.8L0 134Z" fill="#f04164"></path><path d="M0 411L11.5 413.8C23 416.7 46 422.3 68.8 422.3C91.7 422.3 114.3 416.7 137.2 417.5C160 418.3 183 425.7 205.8 425.7C228.7 425.7 251.3 418.3 274.2 417.5C297 416.7 320 422.3 342.8 425.2C365.7 428 388.3 428 411.2 428C434 428 457 428 480 429.7C503 431.3 526 434.7 548.8 433.7C571.7 432.7 594.3 427.3 617.2 423.8C640 420.3 663 418.7 685.8 420.5C708.7 422.3 731.3 427.7 754.2 428.5C777 429.3 800 425.7 822.8 423C845.7 420.3 868.3 418.7 891.2 417.8C914 417 937 417 948.5 417L960 417L960 253L948.5 251.2C937 249.3 914 245.7 891.2 249.2C868.3 252.7 845.7 263.3 822.8 267.8C800 272.3 777 270.7 754.2 269C731.3 267.3 708.7 265.7 685.8 267.5C663 269.3 640 274.7 617.2 280.8C594.3 287 571.7 294 548.8 294C526 294 503 287 480 279C457 271 434 262 411.2 256.5C388.3 251 365.7 249 342.8 250.8C320 252.7 297 258.3 274.2 268.3C251.3 278.3 228.7 292.7 205.8 297.2C183 301.7 160 296.3 137.2 290.8C114.3 285.3 91.7 279.7 68.8 278.7C46 277.7 23 281.3 11.5 283.2L0 285Z" fill="#f04164"></path><path d="M0 471L11.5 471.8C23 472.7 46 474.3 68.8 473.3C91.7 472.3 114.3 468.7 137.2 468.7C160 468.7 183 472.3 205.8 472.3C228.7 472.3 251.3 468.7 274.2 467.8C297 467 320 469 342.8 470C365.7 471 388.3 471 411.2 471C434 471 457 471 480 473.7C503 476.3 526 481.7 548.8 483.5C571.7 485.3 594.3 483.7 617.2 481C640 478.3 663 474.7 685.8 474.7C708.7 474.7 731.3 478.3 754.2 478.3C777 478.3 800 474.7 822.8 473.7C845.7 472.7 868.3 474.3 891.2 472.5C914 470.7 937 465.3 948.5 462.7L960 460L960 415L948.5 415C937 415 914 415 891.2 415.8C868.3 416.7 845.7 418.3 822.8 421C800 423.7 777 427.3 754.2 426.5C731.3 425.7 708.7 420.3 685.8 418.5C663 416.7 640 418.3 617.2 421.8C594.3 425.3 571.7 430.7 548.8 431.7C526 432.7 503 429.3 480 427.7C457 426 434 426 411.2 426C388.3 426 365.7 426 342.8 423.2C320 420.3 297 414.7 274.2 415.5C251.3 416.3 228.7 423.7 205.8 423.7C183 423.7 160 416.3 137.2 415.5C114.3 414.7 91.7 420.3 68.8 420.3C46 420.3 23 414.7 11.5 411.8L0 409Z" fill="#eaaf81"></path><path d="M0 541L11.5 541C23 541 46 541 68.8 541C91.7 541 114.3 541 137.2 541C160 541 183 541 205.8 541C228.7 541 251.3 541 274.2 541C297 541 320 541 342.8 541C365.7 541 388.3 541 411.2 541C434 541 457 541 480 541C503 541 526 541 548.8 541C571.7 541 594.3 541 617.2 541C640 541 663 541 685.8 541C708.7 541 731.3 541 754.2 541C777 541 800 541 822.8 541C845.7 541 868.3 541 891.2 541C914 541 937 541 948.5 541L960 541L960 458L948.5 460.7C937 463.3 914 468.7 891.2 470.5C868.3 472.3 845.7 470.7 822.8 471.7C800 472.7 777 476.3 754.2 476.3C731.3 476.3 708.7 472.7 685.8 472.7C663 472.7 640 476.3 617.2 479C594.3 481.7 571.7 483.3 548.8 481.5C526 479.7 503 474.3 480 471.7C457 469 434 469 411.2 469C388.3 469 365.7 469 342.8 468C320 467 297 465 274.2 465.8C251.3 466.7 228.7 470.3 205.8 470.3C183 470.3 160 466.7 137.2 466.7C114.3 466.7 91.7 470.3 68.8 471.3C46 472.3 23 470.7 11.5 469.8L0 469Z" fill="#f5f5f4"></path></svg>